<svg height="80" viewBox="0 0 77 80" width="77" xmlns="http://www.w3.org/2000/svg"><g fill="none"><path d="m15.766376 43.3752827c-.6236687-.2579338-1.3418658-.1161794-1.8196727.3592982l-5.49548379 5.4792982-5.49564024-5.4792982c-.65105691-.6504483-1.70808537-.6516959-2.36086382-.002963-.31472968.3128265-.49126626.7377778-.49048374 1.1806628v33.2683041c0 .9186745.74746341 1.6634698 1.66942886 1.6634698h13.35496143c.9219654 0 1.6694288-.7447953 1.6694288-1.6634698v-33.2683041c0-.6730604-.4073801-1.2798441-1.0316748-1.536998z" fill="#2ada7a"/><path d="m29.6656585 30.4272904c-.6518394-.6493567-1.7085548-.6493567-2.3605508 0l-6.6775589 6.6537232c-.3141037.3120468-.4906403.7357505-.4907968 1.1776999v39.9220272c0 .9186745.7474634 1.6634698 1.6694289 1.6634698h13.3549614c.9219654 0 1.6694288-.7447953 1.6694288-1.6634698v-39.9220272c.0007826-.4414815-.174502-.8651852-.4875101-1.1776999z" fill="#23cf71"/><path d="m49.6981789 23.7735673c-.6518395-.6493568-1.7085549-.6493568-2.3605509 0l-6.6775589 6.6537231c-.3141037.3120468-.4906402.7357505-.4907967 1.1776999v46.5757504c0 .9186745.7474634 1.6634698 1.6694288 1.6634698h13.3549614c.9219654 0 1.6694289-.7447953 1.6694289-1.6634698v-46.5757504c.0007825-.4414815-.1745021-.8651852-.4875102-1.1776999z" fill="#14b45c"/><path d="m76.4082581 20.4467836-3.3387012-3.3267836c-.3136341-.3117349-.7388557-.4865497-1.1819187-.48577h-3.3388577c-.443063-.0007797-.8682846.1738792-1.1819187.48577l-6.677559 6.6537232c-.3128516.3125146-.4882926.7362183-.4875101 1.1776998v53.2293177c0 .9186745.7474634 1.6634698 1.6694288 1.6634698h13.3549614c.9219655 0 1.6694289-.7447953 1.6694289-1.6634698v-56.5562573c.0007825-.4414815-.174502-.8651852-.4873537-1.1776998z" fill="#079d4a"/><path d="m75.2263394 0h-10.0162601c-.9219655-.0017154-1.6706809.74183236-1.6724025 1.66050682-.0007825.44288499.1757541.86783626.4904838 1.18066277l3.8294979 3.81255361-12.6638394 12.6186355-5.4956402-5.4792983c-.6518395-.6493567-1.7085549-.6493567-2.3605509 0l-12.1764857 12.1330215-5.4956403-5.4792983c-.6518394-.6493567-1.7085548-.6493567-2.3605508 0l-18.85373169 18.7865887-5.49564024-5.4792982c-.66310773-.6382846-1.71997968-.6198831-2.36055081.0408577-.62476423.6446783-.62476423 1.6665887 0 2.3111111l6.67755894 6.6537232c.65183943.6493567 1.70855488.6493567 2.36055081 0l18.85060159-18.7833139 5.4956403 5.4760234c.6518394.6493568 1.7085549.6493568 2.3605508 0l12.1763293-12.1295906 5.4956402 5.4760234c.6518394.6493567 1.7085549.6493567 2.3605508 0l13.8457581-13.79306045 3.8262114 3.81255365c.3131647.3129824.7383862.4888888 1.1819187.4890448.2189492.0004678.4357073-.0425731.6377541-.1264717.6242947-.257154 1.0315183-.8637817 1.0316748-1.5369981v-9.98050681c-.0001565-.91867447-.7474634-1.66346979-1.6694289-1.66346979z" fill="#151821"/></g></svg>