<svg height="60" viewBox="0 0 60 60" width="60" xmlns="http://www.w3.org/2000/svg"><g fill="#a1a4ac" fill-rule="evenodd" opacity=".6"><circle cx="30" cy="30" opacity=".1" r="30"/><path d="m30 40c5.5050505 0 10-4.4949495 10-10s-4.4949495-10-10-10-10 4.469697-10 10c0 5.5050505 4.4949495 10 10 10zm0-18.5606061c4.7222222 0 8.5353535 3.8131314 8.5353535 8.5353536s-3.8131313 8.560606-8.5353535 8.560606-8.5353535-3.8383838-8.5353535-8.5353535 3.8131313-8.5606061 8.5353535-8.5606061zm-5.1515152 14.4949495 2.8282829-1.8686868c.2525252-.1767677.5555555-.3030303.8838384-.3282829h.1767676c.3535354 0 .6565657-.2272727.7323233-.580808.0757575-.3282829-.1010101-.6818182-.4040404-.8333334-1.010101-.4545454-1.6666667-1.4646464-1.6666667-2.5757576v-2.6262626c0-1.5656565 1.2626263-2.8282828 2.8282828-2.8282828 1.5656566 0 2.8030303 1.2626263 2.8030303 2.8282828v2.6262626c0 1.1363637-.6818182 2.1717172-1.7424242 2.6010101-.3282828.1262627-.5050505.479798-.4292929.8080809.0757575.3282828.3535353.580808.7070707.6060606h.1767676c.2272728.050505.429293.1515151.6060606.2777777l2.8282829 1.8434344c.3787879-.3282828.7070707-.6818182 1.010101-1.0858586l-3.030303-1.969697c.8333333-.7828283 1.3131313-1.8939394 1.3131313-3.0808081v-2.6262626c0-2.3737374-1.9191919-4.2929293-4.2929293-4.2929293s-4.2929293 1.9191919-4.2929293 4.2929293v2.6262626c0 1.1111112.4292929 2.1717172 1.1868687 2.9545455-.0757576.0505051-.1515152.1010101-.2272728.1515152l-3.030303 2.020202c.3282828.3787879.6565657.7323232 1.0353535 1.060606z" fill-rule="nonzero"/></g></svg>