<svg height="60" viewBox="0 0 60 60" width="60" xmlns="http://www.w3.org/2000/svg"><g fill="#14b45c" fill-rule="evenodd"><circle cx="30" cy="30" opacity=".1" r="30"/><path d="m33.8976795 36.3884737c-1.5175223 0-2.7477173 1.2561829-2.7477173 2.8057631s1.230195 2.8057632 2.7477173 2.8057632c1.5175224 0 2.7477173-1.256183 2.7477173-2.8057632-.0013301-1.5490172-1.2307462-2.8044049-2.7477173-2.8057631zm0 3.8847133c-.4285614-.0000011-.814878-.2637464-.9786551-.6681454-.1637771-.4043991-.072727-.869727.2306571-1.1788144.303384-.3090874.7592916-.4009995 1.1549499-.2328408s.6530655.5632367.6520893 1.0008504c-.0013302.596286-.4750897 1.0789518-1.0590412 1.0789502zm4.2458143-15.0190851c.2595605-.0038176.5064138.1144951.6693797.3208224.1629659.2063274.2239283.4777332.1653088.7359575l-1.5584068 6.8579848c-.337868 1.5120184-1.6583471 2.5819131-3.1771236 2.5742076h-6.8994481c-1.5080966.0036427-2.8201444-1.0534757-3.167474-2.5520374l-2.091546-8.9937149c-.0639422-.2776573-.3068825-.4736652-.5862118-.4729645h-2.6536339c-.301653 0-.5803918-.1643296-.7312182-.4310874-.1508265-.2667578-.1508265-.595417 0-.8621748.1508264-.2667578.4295652-.4310874.7312182-.4310874h2.6343347c1.0613171-.0027839 1.9847394.7411509 2.2290525 1.7957869l.34256 1.4583072zm-2.3737962 7.5255544 1.3195798-5.8012048h-12.6337098l1.3630029 5.8012048c.1660019.7225617.7978102 1.2329695 1.5246333 1.2316783h6.8994481c.7280334.0033541 1.3616405-.5076981 1.5270457-1.2316783zm-8.7232183 3.6088174c.7297975-.0013077 1.430178.2936426 1.9469019.8198962.5167238.5262536.8074135 1.2406515.8080525 1.9858669-.0000052 1.5486171-1.2287327 2.8043963-2.7453112 2.8057524-1.5165785.001356-2.7474579-1.252224-2.7501191-2.8008386-.0026613-1.5486147 1.223902-2.806598 2.7404759-2.8106769zm0 3.8847133c.5839514.0000016 1.0577109-.4826642 1.0590411-1.0789502.0009763-.4376137-.256431-.8326917-.6520893-1.0008504s-.8515659-.0762466-1.1549499.2328408c-.3033841.3090874-.3944342.7744153-.2306571 1.1788144.1637771.404399.5500937.6681443.9786552.6681454z" fill-rule="nonzero"/></g></svg>