<svg height="60" viewBox="0 0 60 60" width="60" xmlns="http://www.w3.org/2000/svg"><g fill="#a1a4ac" fill-rule="evenodd" opacity=".6"><circle cx="30" cy="30" opacity=".1" r="30"/><path d="m21.8248053 31.1319186c0-.3451763.279825-.624997.6250067-.624997s.6250067.2798207.6250067.624997c0 4.4231032 3.2319096 7.6180875 7.654457 7.6180875 4.4276552-.0056818 8.015514-3.5936243 8.0210234-8.0212106 0-4.4224782-3.085033-7.6540249-7.5082054-7.6540249-.3451817 0-.6250067-.2798206-.6250067-.6249969s.279825-.6249969.6250067-.6249969c5.1119297 0 8.7579063 3.7924814 8.7579063 8.9040187-.0055109 5.1178165-4.1528282 9.2653487-9.2707243 9.2712045-5.1122423 0-8.9044704-3.7559191-8.9044704-8.8680814zm-1.1997004-1.7518664c-.3451816 0-.6250067-.2798207-.6250067-.624997-.0110343-2.325324.907831-4.5585984 2.5521276-6.2028693s3.8776058-2.5631218 6.2029662-2.5520877c.3451817 0 .6250067.2798207.6250067.624997v8.12996c0 .3451763-.279825.624997-.6250067.624997zm.650632-1.2499939h6.8541359v-6.8543413c-3.6620468.2824935-6.5716379 3.1920392-6.8541359 6.8540288z" fill-rule="nonzero"/></g></svg>