<svg height="20" viewBox="0 0 20 20" width="20" xmlns="http://www.w3.org/2000/svg"><path d="m9.97671233 0c5.48719177 0 9.97671237 4.48952055 9.97671237 9.97671233 0 5.48719177-4.4895206 9.97671237-9.97671237 9.97671237-5.48719178 0-9.97671233-4.4895891-9.97671233-9.97671237 0-5.48712329 4.48952055-9.97671233 9.97671233-9.97671233zm5.05068497 8.29308219h-1.1223973v1.12239726h-1.1223973v1.12239725h1.1223973v1.1223973h1.1223973v-1.1223973h1.1223287v-1.12239725h-1.1223287zm-10.1014384 4.48952051c1.49650685 1.4965069 4.11541096 1.4965069 5.6118493.0624658.5612329-.5611644.8730137-1.3717808.9353425-2.1823973v-.87294517l-.0623288-.31178082h-3.55417806v1.24705479h2.24472606v.124726c-.0623288.3741096-.31178086.7482877-.56116442.9976713-.87294521.9976712-2.55650685.9976712-3.49184932 0-.99767123-.9976713-.93534246-2.68123292 0-3.61657538.81054795-.81061644 2.05767124-.93527397 2.93061644-.37410959l.37410959.24938356.99767121-.99767123-.62356162-.43650685-.56116438-.31178082c-1.43417808-.56116439-3.05534247-.31178083-4.17773973.81061643-1.55883562 1.49643836-1.55883562 4.11534248-.06232877 5.61184928z" fill="#fff" opacity=".9"/></svg>