<svg height="36" viewBox="0 0 146 36" width="146" xmlns="http://www.w3.org/2000/svg"><g fill="none" fill-rule="evenodd" transform="translate(-2 -2)"><g fill="#14b45c"><path d="m13.8298517 4h20.3402966c3.7657753 0 5.1313365.39209541 6.5080477 1.12836861s2.4571622 1.81672421 3.1934354 3.1934354c.7362732 1.3767112 1.1283686 2.74227239 1.1283686 6.50804769v10.3402966c0 3.7657753-.3920954 5.1313365-1.1283686 6.5080477s-1.8167242 2.4571622-3.1934354 3.1934354-2.7422724 1.1283686-6.5080477 1.1283686h-20.3402966c-3.7657753 0-5.13133649-.3920954-6.50804769-1.1283686-1.37671119-.7362732-2.4571622-1.8167242-3.1934354-3.1934354s-1.12836861-2.7422724-1.12836861-6.5080477v-10.3402966c0-3.7657753.39209541-5.13133649 1.12836861-6.50804769.7362732-1.37671119 1.81672421-2.4571622 3.1934354-3.1934354 1.3767112-.7362732 2.74227239-1.12836861 6.50804769-1.12836861z" opacity=".2" transform="matrix(.98480775 -.17364818 .17364818 .98480775 -3.10835 4.471401)"/><path d="m13.2555408 5h19.4889184c3.566075 0 4.8592199.37130244 6.1629236 1.06853082 1.3037037.69722837 2.326858 1.72038266 3.0240864 3.02408637s1.0685308 2.59684861 1.0685308 6.16292361v9.4889184c0 3.566075-.3713024 4.8592199-1.0685308 6.1629236s-1.7203827 2.326858-3.0240864 3.0240864-2.5968486 1.0685308-6.1629236 1.0685308h-19.4889184c-3.56607496 0-4.85921991-.3713024-6.16292361-1.0685308-1.30370371-.6972284-2.326858-1.7203827-3.02408637-3.0240864-.69722838-1.3037037-1.06853082-2.5968486-1.06853082-6.1629236v-9.4889184c0-3.566075.37130244-4.8592199 1.06853082-6.16292361.69722837-1.30370371 1.72038266-2.326858 3.02408637-3.02408637 1.3037037-.69722838 2.59684865-1.06853082 6.16292361-1.06853082zm13.5877024 14.5405405-1.6432432 4.7927929-4.0432433-11.7927929c-.2471043-.7207207-1.2664092-.7207207-1.5135135 0l-2.2146718 6.4594595h-2.6285714c-.4418278 0-.8.3581722-.8.8 0 .4418277.3581722.7999999.8.7999999h3.2c.3418293 0 .6458931-.2171884.7567567-.5405405l1.6432433-4.7927929 4.0432432 11.7927929c.2471043.7207207 1.2664092.7207207 1.5135135 0l2.2146718-6.4594595h2.6285715c.4418277 0 .7999999-.3581722.7999999-.7999999 0-.4418278-.3581722-.8-.7999999-.8h-3.2c-.3418294 0-.6458932.2171884-.7567568.5405405z"/></g><path d="m59.05 28.302c-2.112 0-3.476-1.144-4.356-2.42v2.178h-1.694v-16.06h1.694v6.974c.924-1.364 2.266-2.53 4.356-2.53 2.728 0 5.434 2.156 5.434 5.896v.044c0 3.718-2.684 5.918-5.434 5.918zm-.308-1.518c2.2 0 4.004-1.628 4.004-4.378v-.044c0-2.684-1.848-4.4-4.004-4.4-2.112 0-4.114 1.782-4.114 4.378v.044c0 2.64 2.002 4.4 4.114 4.4zm9.878-3.718c.242 2.398 2.002 3.784 4.004 3.784 1.562 0 2.662-.638 3.586-1.606l1.056.946c-1.144 1.276-2.53 2.134-4.686 2.134-3.124 0-5.676-2.398-5.676-5.94 0-3.3 2.31-5.94 5.456-5.94 3.366 0 5.302 2.684 5.302 6.028 0 .154 0 .33-.022.594zm0-1.364h7.326c-.198-2.068-1.386-3.828-3.63-3.828-1.958 0-3.454 1.628-3.696 3.828zm13.024 1.364c.242 2.398 2.002 3.784 4.004 3.784 1.562 0 2.662-.638 3.586-1.606l1.056.946c-1.144 1.276-2.53 2.134-4.686 2.134-3.124 0-5.676-2.398-5.676-5.94 0-3.3 2.31-5.94 5.456-5.94 3.366 0 5.302 2.684 5.302 6.028 0 .154 0 .33-.022.594zm0-1.364h7.326c-.198-2.068-1.386-3.828-3.63-3.828-1.958 0-3.454 1.628-3.696 3.828zm12.012 9.878v-14.894h1.694v2.288c.924-1.364 2.266-2.53 4.356-2.53 2.728 0 5.434 2.156 5.434 5.896v.044c0 3.718-2.684 5.918-5.434 5.918-2.112 0-3.476-1.144-4.356-2.42v5.698zm5.742-4.796c2.2 0 4.004-1.628 4.004-4.378v-.044c0-2.684-1.848-4.4-4.004-4.4-2.112 0-4.114 1.782-4.114 4.378v.044c0 2.64 2.002 4.4 4.114 4.4zm15.488 1.496c-1.782 0-2.882-.814-3.674-1.76v1.54h-3.344v-16.06h3.344v5.962c.814-1.1 1.936-1.914 3.674-1.914 2.75 0 5.368 2.156 5.368 6.094v.044c0 3.938-2.574 6.094-5.368 6.094zm-.858-2.838c1.562 0 2.882-1.276 2.882-3.256v-.044c0-1.958-1.32-3.256-2.882-3.256s-2.86 1.298-2.86 3.256v.044c0 1.958 1.298 3.256 2.86 3.256zm8.296 2.618v-3.52h3.564v3.52zm6.49-13.09v-2.97h3.52v2.97zm.088 13.09v-11.792h3.344v11.792zm12.276.264c-3.652 0-6.358-2.706-6.358-6.094v-.044c0-3.388 2.728-6.138 6.402-6.138 3.652 0 6.358 2.706 6.358 6.094v.044c0 3.388-2.728 6.138-6.402 6.138zm.044-2.882c1.914 0 3.058-1.474 3.058-3.212v-.044c0-1.738-1.254-3.256-3.102-3.256-1.914 0-3.058 1.474-3.058 3.212v.044c0 1.738 1.254 3.256 3.102 3.256z" fill="#fff"/></g></svg>