<svg height="80" viewBox="0 0 70 80" width="70" xmlns="http://www.w3.org/2000/svg"><g fill="none"><path d="m68.6632962 10.0534893-33.2590423-9.98050684c-.3107127-.09730995-.6438753-.09730995-.954588 0l-33.25904229 9.98050684c-.70436526.2103703-1.18719377.8583236-1.18734967 1.5936062v36.5952437c0 14.7079922 22.42322936 27.7924366 34.42986636 31.5316959.3247439.1021442.673029.1021442.9977728 0 11.9932294-3.7394152 34.4164588-16.8238597 34.4164588-31.5316959v-36.5952437c.0003118-.734347-.4809576-1.3819883-1.1840757-1.5936062z" fill="#14b45c"/><ellipse cx="34.925323" cy="38.261832" fill="#151720" rx="18.29245" ry="18.297544"/><path d="m31.5994655 46.5788694c-.4413586.0007797-.8649443-.1738791-1.177372-.48577l-6.6518708-6.6537232c-.637951-.6607407-.6197105-1.7138401.0408463-2.3521247.6444989-.6225342 1.6661248-.6225342 2.3104677 0l5.4777729 5.4760234 12.1262138-12.1295907c.637951-.6607407 1.6907572-.6791423 2.3514699-.0408577.6605568.6381287.6789532 1.6912281.0408463 2.3521248-.0134075.0138791-.026971.0274464-.0408463.0408577l-13.3035857 13.3072904c-.3116481.3109552-.7338308.4856141-1.1739421.48577z" fill="#fafafa"/></g></svg>