<svg height="60" viewBox="0 0 60 60" width="60" xmlns="http://www.w3.org/2000/svg"><g fill="#a1a4ac" fill-rule="evenodd" opacity=".6"><circle cx="30" cy="30" opacity=".1" r="30"/><path d="M28.191 23.64h-.003a.559.559 0 0 0-.562.554c0 .21-.082.875-.465 1.175-.23.18-.558.22-1.004.122a.566.566 0 0 0-.676.417.552.552 0 0 0 .427.66c.246.054.47.078.672.078.61 0 1.027-.21 1.29-.417.868-.681.887-1.903.886-2.04a.558.558 0 0 0-.565-.55zm-3.003 7.953a.57.57 0 0 0-.748.276.547.547 0 0 0 .283.73c.024.01 2.338 1.055 2.338 3.21 0 .305.253.552.565.552a.559.559 0 0 0 .565-.552c0-2.86-2.88-4.162-3.003-4.216zM40 26.949c0-1.502-.827-2.886-2.168-3.644a6.772 6.772 0 0 0-1.524-1.53 6.907 6.907 0 0 0-2.123-1.04 4.343 4.343 0 0 0-2.43-.735c-.221 0-.78.051-1.255.494A1.874 1.874 0 0 0 29.244 20c-.873 0-1.71.254-2.43.734a6.914 6.914 0 0 0-2.122 1.042 6.763 6.763 0 0 0-1.524 1.529C21.827 24.063 21 25.447 21 26.949c0 .888.29 1.747.824 2.465A3.26 3.26 0 0 0 21 31.568c0 1.257.727 2.388 1.853 2.952-.03.173-.046.34-.046.504 0 1.567 1.132 2.91 2.68 3.243a3.39 3.39 0 0 0 2.467 1.683.605.605 0 0 0 .066.007l1.232.043c.484 0 .924-.188 1.25-.491.328.303.772.49 1.267.49l1.211-.042a.605.605 0 0 0 .067-.007 3.39 3.39 0 0 0 2.466-1.683c1.548-.332 2.68-1.676 2.68-3.243a2.86 2.86 0 0 0-.046-.504C39.273 33.956 40 32.825 40 31.568c0-.792-.295-1.553-.824-2.154A4.124 4.124 0 0 0 40 26.95zm-10.065 11.28a.673.673 0 0 1-.663.668l-1.176-.042a2.257 2.257 0 0 1-1.71-1.303.564.564 0 0 0-.449-.328c-1.14-.14-2-1.085-2-2.2 0-.203.037-.414.117-.663a.55.55 0 0 0-.36-.689c-.935-.305-1.564-1.15-1.564-2.103 0-.633.287-1.237.787-1.665 2.375-1.304 3.91.378 3.978.455a.571.571 0 0 0 .795.063.543.543 0 0 0 .066-.778c-.71-.821-2.63-1.989-5.022-.89a3.04 3.04 0 0 1-.604-1.805c0-1.14.65-2.19 1.696-2.739a.56.56 0 0 0 .201-.178c.365-.53.815-.99 1.339-1.37a5.78 5.78 0 0 1 1.852-.892.568.568 0 0 0 .175-.083 3.202 3.202 0 0 1 1.85-.583c.049 0 .297.01.49.198.192.188.201.43.201.477v16.45zm3.374-7.81a.572.572 0 0 0 .796-.06c.064-.073 1.6-1.76 3.978-.456.5.428.787 1.032.787 1.665 0 .953-.629 1.799-1.564 2.104a.55.55 0 0 0-.36.689c.08.248.117.46.117.663 0 1.114-.86 2.06-2 2.2a.564.564 0 0 0-.449.327 2.257 2.257 0 0 1-1.71 1.303l-1.155.042a.676.676 0 0 1-.684-.667v-16.45c0-.047.01-.29.203-.478a.733.733 0 0 1 .488-.197c.668 0 1.308.201 1.851.583a.573.573 0 0 0 .175.082c.67.187 1.294.487 1.852.893.524.38.974.84 1.339 1.37a.56.56 0 0 0 .201.178c1.046.55 1.696 1.599 1.696 2.739a3.04 3.04 0 0 1-.604 1.805c-2.392-1.1-4.311.068-5.023.89a.542.542 0 0 0 .066.774zm.065 5.942a.559.559 0 0 0 .565-.552c0-2.14 2.313-3.2 2.34-3.21a.547.547 0 0 0 .28-.73.57.57 0 0 0-.747-.276c-.123.054-3.004 1.356-3.004 4.216 0 .305.254.552.566.552zm1.718-9.793a.552.552 0 0 0 .427-.66.566.566 0 0 0-.676-.417c-.439.097-.776.056-1.002-.12-.38-.295-.466-.95-.467-1.178a.559.559 0 0 0-.562-.553h-.003a.56.56 0 0 0-.565.549c-.001.137.017 1.359.886 2.04.262.207.68.417 1.289.417.202 0 .426-.024.673-.078z" fill-rule="nonzero"/></g></svg>