<svg height="60" viewBox="0 0 60 60" width="60" xmlns="http://www.w3.org/2000/svg"><g fill="#a1a4ac" fill-rule="evenodd" opacity=".6"><circle cx="30" cy="30" opacity=".1" r="30"/><path d="m28.1909856 23.6395748h-.0031651c-.3122092.0015454-.5638304.2501297-.5622479.554789.0011304.2092877-.081613.8744605-.4641314 1.1747045-.229692.1805879-.5584047.2205468-1.0049023.1220844-.3042966-.0671133-.6070107.1196561-.6757374.4170301-.0687267.2973739.1225325.592761.4270552.6598743.2464215.0543089.4700094.0774895.6725724.0774895.6094975 0 1.0268315-.2101708 1.2893043-.416147.8683531-.6817304.8868912-1.9036791.8859869-2.0407758-.0011304-.3037762-.253882-.549049-.5647347-.549049zm-3.003177 7.9529323c-.284402-.1251752-.6192187-.0017661-.7476292.2761803-.1284104.2777257-.0018086.6046825.2828195.7300785.0235118.0103761 2.337839 1.0548276 2.337839 3.209961 0 .3048801.2529776.5519191.5651869.5519191.3122092 0 .5651868-.247039.5651868-.5519191.0002261-2.8602651-2.8806444-4.1621317-3.003403-4.2162198zm14.8121914-4.6436258c0-1.5016613-.8269814-2.8854327-2.1676047-3.6439902-.4223076-.5872418-.9343669-1.1009681-1.5239699-1.5290365-.6427305-.4664819-1.3564484-.8166193-2.123294-1.04114-.7182395-.4810526-1.5558464-.7347146-2.4293992-.7347146-.2217793 0-.7808622.0512181-1.2556192.4936364-.474983-.4424183-1.0338398-.4936364-1.2558452-.4936364-.8735528 0-1.7111597.253662-2.4293992.7344938-.7668456.2247415-1.4807896.5748789-2.123294 1.0411401-.589603.4278476-1.1018884.9417946-1.5239699 1.5290364-1.3406233.7585575-2.1676047 2.1425497-2.1676047 3.6439902 0 .8885896.2893757 1.7469341.8235903 2.4657534-.5283367.6007087-.8235903 1.3612531-.8235903 2.1540296 0 1.2563884.7266042 2.3873809 1.8526826 2.9518837-.0305201.1724195-.0456671.3395406-.0456671.5040124 0 1.5667877 1.1317301 2.9106002 2.67989 3.2426347.5052771.9013941 1.4068632 1.5221926 2.4667016 1.683353.0219292.0033115.0440846.0052984.0662399.0061815l1.2316552.0434912c.4844782 0 .9244196-.1876525 1.2499673-.4909872.3282605.303114.7727235.4907664 1.2671489.4907664h.0006783l1.2110824-.0432704c.0221553-.0008831.0443106-.00287.0662399-.0061815 1.0598384-.1611604 1.9614245-.7821797 2.4664755-1.683353 1.5481599-.3318137 2.67989-1.6756262 2.67989-3.2426347 0-.1644718-.0149209-.3315929-.0456671-.5040124 1.1260784-.5645028 1.8526826-1.6954953 1.8526826-2.9518837 0-.7927765-.2950275-1.5535417-.8235903-2.1540296.5342146-.7188193.8235903-1.5771638.8235903-2.4655326zm-10.0652999 11.2799002c0 .3680196-.3065574.6673805-.6628512.667822l-1.1758147-.0419459c-.7657152-.1267206-1.4036981-.6119678-1.7107076-1.3029704-.0795784-.1790425-.2498126-.3035554-.4480802-.3278399-1.1400949-.1395251-2.0000833-1.0850728-2.0000833-2.1992869 0-.2039893.0373024-.4148223.1171067-.6634067.0922385-.2869979-.0678224-.5934233-.360137-.6887949-.9354973-.3053216-1.5639851-1.1506408-1.5639851-2.1034738 0-.6333823.287341-1.2369609.7871922-1.6650293 2.3744631-1.303412 3.9097367.3781749 3.9777852.455002.1116809.1278245.2703854.1933925.4302203.1933925.1288626 0 .2586295-.0428289.3646585-.1304737.2382828-.1969247.2681247-.5450752.066466-.7777643-.7112312-.8212555-2.631284-1.9886746-5.0229287-.8892519-.3895268-.52918-.6033935-1.15616-.6033935-1.8056583 0-1.1402647.6499649-2.1897939 1.6957866-2.7390637.0809348-.0423874.1498876-.10354.2012066-.1779387.3648846-.5294007.8149994-.9903635 1.3383625-1.3700838.5584046-.4053293 1.1816927-.7055732 1.8520043-.8921219.0628488-.0174406.1223064-.0454781.1752079-.0827878.5423534-.3812657 1.182597-.5828265 1.8511001-.5828265.0477017 0 .2957057.009493.4883214.197587.1923896.1878732.2021108.4302761.2021108.476858v16.4500569zm3.3739395-7.8105373c.1060291.0887486.2364742.1320191.3662411.1320191.1591566 0 .317635-.0651265.429542-.1916263.0648835-.0728533 1.6012875-1.7597386 3.9782374-.4552228.4998512.4280684.7871922 1.031647.7871922 1.6650293 0 .952833-.6287138 1.7981522-1.5642111 2.1034738-.2923147.0953716-.4523756.401797-.359911.6890157.0800304.2483635.1171067.4591966.1171067.6631859 0 1.1142141-.8597623 2.0599825-2.0000833 2.1992869-.1982676.0242844-.3687279.1490181-.4483062.3280606-.3070095.6910027-.9449925 1.1762499-1.7104816 1.3029705l-1.1552419.0415043c-.3768666 0-.683424-.2993609-.683424-.6673805v-16.4502776c0-.046582.0097212-.2889848.2023369-.476858.1926157-.1878733.4406197-.1975871.4883215-.1975871.668503 0 1.3085206.2015609 1.8511.5828265.0531276.0373098.1125852.0653472.1752079.0827879.6703116.1865486 1.2935997.4865718 1.8522304.8921219.5233631.379941.973704.8409038 1.3383625 1.3700838.051319.0743987.1202718.1355513.2012066.1779387 1.0460478.5494905 1.6957866 1.5990198 1.6957866 2.7390637 0 .6494983-.2138667 1.2764783-.6036195 1.8056583-2.3920969-1.0994227-4.3116976.0675549-5.0229288.8892519-.2007544.231806-.1711386.5773073.0653356.7746735zm.0651096 5.9424018c.3122092 0 .5651868-.247039.5651868-.5519191 0-2.1390173 2.3134229-3.1989226 2.3391954-3.2104025.2834978-.1258376.4096475-.4521321.2814631-.7294162-.1281844-.2779464-.4630011-.4015763-.7476292-.2761803-.1225325.0540881-3.0036291 1.3559547-3.0036291 4.2162198.0002261.3046593.2532037.5516983.565413.5516983zm1.717942-9.7925889c.3045226-.0671133.4957819-.3625004.4270552-.6598743-.0687268-.2975948-.3716669-.4837019-.6757375-.4170301-.438585.096917-.7756624.056075-1.0021893-.1198768-.3800317-.2956078-.465714-.9504045-.4666183-1.1786782.0006782-.303997-.2507169-.5514775-.5622479-.5530229h-.003165c-.3106267 0-.5633783.2452728-.5651869.549049-.0006782.1370967.0178599 1.3590454.8859869 2.0407758.2624728.206197.6795807.416147 1.2890782.416147.2027891 0 .4266031-.0231806.6730246-.0774895z" fill-rule="nonzero"/></g></svg>