<svg height="80" viewBox="0 0 77 80" width="77" xmlns="http://www.w3.org/2000/svg"><g fill="none"><path d="M15.766 43.375a1.674 1.674 0 0 0-1.82.36l-5.495 5.479-5.495-5.48a1.674 1.674 0 0 0-2.361-.002 1.66 1.66 0 0 0-.49 1.18v33.269c0 .918.747 1.663 1.669 1.663h13.355c.922 0 1.67-.745 1.67-1.663V44.912c0-.673-.408-1.28-1.033-1.537z" fill="#2ada7a"/><path d="M29.666 30.427a1.674 1.674 0 0 0-2.36 0l-6.678 6.654a1.66 1.66 0 0 0-.491 1.178V78.18c0 .918.747 1.663 1.67 1.663H35.16c.922 0 1.67-.745 1.67-1.663V38.259a1.66 1.66 0 0 0-.488-1.178z" fill="#23cf71"/><path d="M49.698 23.774a1.674 1.674 0 0 0-2.36 0l-6.678 6.653a1.66 1.66 0 0 0-.49 1.178v46.576c0 .918.747 1.663 1.669 1.663h13.355c.922 0 1.67-.745 1.67-1.663V31.605a1.66 1.66 0 0 0-.488-1.178z" fill="#14b45c"/><path d="M76.408 20.447L73.07 17.12a1.673 1.673 0 0 0-1.182-.486h-3.34c-.442 0-.868.174-1.181.486l-6.678 6.654a1.66 1.66 0 0 0-.487 1.177v53.23c0 .918.747 1.663 1.67 1.663h13.354c.922 0 1.67-.745 1.67-1.663V21.624a1.66 1.66 0 0 0-.488-1.177z" fill="#079d4a"/><path d="M75.226 0H65.21a1.66 1.66 0 1 0-1.182 2.841l3.83 3.813-12.664 12.618-5.496-5.479a1.674 1.674 0 0 0-2.36 0L35.16 25.926l-5.495-5.48a1.674 1.674 0 0 0-2.361 0L8.451 39.234l-5.495-5.479a1.674 1.674 0 0 0-2.361.04 1.66 1.66 0 0 0 0 2.312l6.678 6.654c.651.65 1.708.65 2.36 0l18.85-18.784 5.496 5.476c.652.65 1.709.65 2.36 0l12.177-12.13 5.496 5.477c.652.65 1.708.65 2.36 0L70.218 9.006l3.826 3.812a1.673 1.673 0 0 0 1.82.363 1.663 1.663 0 0 0 1.032-1.537v-9.98c0-.92-.748-1.664-1.67-1.664z" fill="#151821"/></g></svg>