<svg height="60" viewBox="0 0 60 60" width="60" xmlns="http://www.w3.org/2000/svg"><g fill="#a1a4ac" fill-rule="evenodd" opacity=".6"><circle cx="30" cy="30" opacity=".1" r="30"/><path d="M30 40c5.505 0 10-4.495 10-10s-4.495-10-10-10-10 4.47-10 10c0 5.505 4.495 10 10 10zm0-18.56c4.722 0 8.535 3.813 8.535 8.535s-3.813 8.56-8.535 8.56-8.535-3.838-8.535-8.535 3.813-8.56 8.535-8.56zm-5.152 14.494l2.829-1.868a1.79 1.79 0 0 1 .884-.329h.176a.732.732 0 0 0 .733-.58.762.762 0 0 0-.404-.834 2.83 2.83 0 0 1-1.667-2.576v-2.626a2.824 2.824 0 0 1 2.828-2.828c1.566 0 2.803 1.263 2.803 2.828v2.626a2.802 2.802 0 0 1-1.742 2.601.703.703 0 0 0-.43.809.78.78 0 0 0 .708.606h.176c.228.05.43.151.606.277l2.829 1.844a6.867 6.867 0 0 0 1.01-1.086l-3.03-1.97a4.215 4.215 0 0 0 1.313-3.08V27.12c0-2.374-1.92-4.293-4.293-4.293s-4.293 1.92-4.293 4.293v2.626a4.25 4.25 0 0 0 1.187 2.955l-.228.152-3.03 2.02c.328.379.657.732 1.035 1.06z" fill-rule="nonzero"/></g></svg>