<svg height="60" viewBox="0 0 60 60" width="60" xmlns="http://www.w3.org/2000/svg"><g fill="#14b45c" fill-rule="evenodd"><circle cx="30" cy="30" opacity=".1" r="30"/><path d="M33.898 36.388c-1.518 0-2.748 1.257-2.748 2.806S32.38 42 33.898 42c1.517 0 2.747-1.256 2.747-2.806 0-1.549-1.23-2.804-2.747-2.806zm0 3.885a1.06 1.06 0 0 1-.979-.668 1.098 1.098 0 0 1 .23-1.179c.304-.309.76-.4 1.156-.233s.653.564.652 1.001a1.07 1.07 0 0 1-1.06 1.08zm4.245-15.019a.838.838 0 0 1 .67.32.876.876 0 0 1 .165.737l-1.558 6.858c-.338 1.512-1.659 2.582-3.177 2.574h-6.9c-1.508.004-2.82-1.053-3.167-2.552l-2.092-8.994a.603.603 0 0 0-.586-.473h-2.654a.841.841 0 0 1-.73-.43.878.878 0 0 1 0-.863.841.841 0 0 1 .73-.431h2.635c1.061-.003 1.984.741 2.229 1.796l.342 1.458zM35.77 32.78l1.32-5.802H24.455l1.363 5.802a1.57 1.57 0 0 0 1.524 1.231h6.9a1.568 1.568 0 0 0 1.527-1.231zm-8.724 3.608c.73 0 1.43.294 1.947.82.517.527.808 1.241.808 1.986 0 1.549-1.228 2.805-2.745 2.806-1.516.001-2.747-1.252-2.75-2.8-.003-1.55 1.224-2.807 2.74-2.812zm0 3.885a1.07 1.07 0 0 0 1.06-1.079c0-.437-.257-.832-.653-1s-.851-.077-1.155.232c-.303.31-.394.775-.23 1.179s.55.668.978.668z" fill-rule="nonzero"/></g></svg>