<svg height="60" viewBox="0 0 60 60" width="60" xmlns="http://www.w3.org/2000/svg"><g fill="#a1a4ac" fill-rule="evenodd" opacity=".6"><circle cx="30" cy="30" opacity=".1" r="30"/><path d="M21.825 31.132a.625.625 0 0 1 1.25 0c0 4.423 3.232 7.618 7.654 7.618a8.031 8.031 0 0 0 8.021-8.021c0-4.423-3.085-7.654-7.508-7.654a.625.625 0 1 1 0-1.25c5.112 0 8.758 3.792 8.758 8.904A9.281 9.281 0 0 1 30.73 40c-5.113 0-8.905-3.756-8.905-8.868zm-1.2-1.752a.625.625 0 0 1-.625-.625A8.714 8.714 0 0 1 28.755 20c.345 0 .625.28.625.625v8.13c0 .345-.28.625-.625.625zm.65-1.25h6.855v-6.854a7.45 7.45 0 0 0-6.854 6.854z" fill-rule="nonzero"/></g></svg>