<svg height="40" viewBox="0 0 135 40" width="135" xmlns="http://www.w3.org/2000/svg"><linearGradient id="d" x1="86.245%" x2="-50.146%" y1="30.901%" y2="136.019%"><stop offset="0" stop-color="#ff3a44"/><stop offset="1" stop-color="#c31162"/></linearGradient><mask id="a" fill="#fff"><path d="M0 0h135v40H0z" fill-rule="evenodd"/></mask><mask id="b" fill="#fff"><path d="M1.436.538c-.291.308-.463.786-.463 1.405v22.116c0 .62.172 1.097.463 1.404l.073.073 12.39-12.389v-.292L1.509.465z" fill-rule="evenodd"/></mask><mask id="c" fill="#fff"><path d="M.899 4.855v.292l4.129 4.131.094-.052 4.893-2.78c1.397-.795 1.397-2.095 0-2.889L5.122.777 5.029.724z" fill-rule="evenodd"/></mask><mask id="e" fill="#fff"><path d="M.436 12.463c.46.488 1.221.549 2.078.062l14.608-8.3L12.899.001z" fill-rule="evenodd"/></mask><mask id="f" fill="#fff"><path d="M.436.538l12.463 12.463 4.223-4.224L2.514.477C2.112.248 1.731.14 1.393.14 1.009.14.68.279.436.538" fill-rule="evenodd"/></mask><g fill="none" fill-rule="evenodd"><path d="M130 40H5c-2.75 0-5-2.25-5-5V5c0-2.75 2.25-5 5-5h125c2.75 0 5 2.25 5 5v30c0 2.75-2.25 5-5 5" fill="#000" mask="url(#a)"/><path d="M47.418 10.243c0 .838-.248 1.505-.745 2.003-.565.592-1.3.888-2.204.888-.866 0-1.603-.3-2.208-.9-.607-.6-.909-1.346-.909-2.234 0-.889.302-1.633.91-2.234.604-.6 1.341-.9 2.207-.9.43 0 .841.084 1.231.251.391.168.704.391.94.67l-.529.528c-.397-.474-.944-.712-1.642-.712-.632 0-1.178.222-1.639.666-.46.445-.69 1.021-.69 1.731 0 .71.23 1.286.69 1.73a2.278 2.278 0 0 0 1.64.666c.67 0 1.227-.223 1.675-.67.29-.29.458-.695.502-1.215H44.47v-.72h2.907c.028.156.042.306.042.452" fill="#fff"/><path d="M47.418 10.243c0 .838-.248 1.505-.745 2.003-.565.592-1.3.888-2.204.888-.866 0-1.603-.3-2.208-.9-.607-.6-.909-1.346-.909-2.234 0-.889.302-1.633.91-2.234.604-.6 1.341-.9 2.207-.9.43 0 .841.084 1.231.251.391.168.704.391.94.67l-.529.528c-.397-.474-.944-.712-1.642-.712-.632 0-1.178.222-1.639.666-.46.445-.69 1.021-.69 1.731 0 .71.23 1.286.69 1.73a2.278 2.278 0 0 0 1.64.666c.67 0 1.227-.223 1.675-.67.29-.29.458-.695.502-1.215H44.47v-.72h2.907c.028.156.042.306.042.452z" stroke="#fff" stroke-width=".2"/><path d="M52.028 7.737h-2.732V9.64h2.463v.721h-2.463v1.902h2.732V13h-3.503V7h3.503z" fill="#fff"/><path d="M52.028 7.737h-2.732V9.64h2.463v.721h-2.463v1.902h2.732V13h-3.503V7h3.503z" stroke="#fff" stroke-width=".2"/><path d="M55.279 13h-.771V7.737h-1.676V7h4.123v.737h-1.676z" fill="#fff"/><path d="M55.279 13h-.771V7.737h-1.676V7h4.123v.737h-1.676z" stroke="#fff" stroke-width=".2"/><path d="M59.938 13h.771V7h-.771z" fill="#fff"/><path d="M59.938 13h.771V7h-.771z" stroke="#fff" stroke-width=".2"/><path d="M64.128 13h-.77V7.737H61.68V7h4.123v.737h-1.676z" fill="#fff"/><path d="M64.128 13h-.77V7.737H61.68V7h4.123v.737h-1.676z" stroke="#fff" stroke-width=".2"/><path d="M69.78 11.722a2.2 2.2 0 0 0 1.63.674c.641 0 1.185-.224 1.63-.674s.666-1.024.666-1.722-.223-1.273-.667-1.722a2.203 2.203 0 0 0-1.63-.675c-.643 0-1.186.225-1.63.675-.443.45-.666 1.024-.666 1.722s.223 1.272.666 1.722m3.83.502c-.59.607-1.323.91-2.2.91s-1.61-.303-2.199-.91c-.59-.606-.884-1.347-.884-2.224s.294-1.619.884-2.225c.59-.606 1.322-.909 2.2-.909.871 0 1.602.304 2.195.913.592.61.888 1.35.888 2.221 0 .877-.295 1.618-.884 2.224" fill="#fff"/><path d="M69.78 11.722a2.2 2.2 0 0 0 1.63.674c.641 0 1.185-.224 1.63-.674s.666-1.024.666-1.722-.223-1.273-.667-1.722a2.203 2.203 0 0 0-1.63-.675c-.643 0-1.186.225-1.63.675-.443.45-.666 1.024-.666 1.722s.223 1.272.666 1.722zm3.83.502c-.59.607-1.324.91-2.2.91s-1.61-.303-2.2-.91c-.59-.606-.884-1.347-.884-2.224s.294-1.619.884-2.225c.59-.606 1.322-.909 2.2-.909.871 0 1.602.304 2.195.913.592.61.888 1.35.888 2.221 0 .877-.295 1.618-.884 2.224z" stroke="#fff" stroke-width=".2"/><path d="M75.575 13V7h.938l2.916 4.667h.034l-.034-1.156v-3.51h.772v6h-.805l-3.05-4.895h-.034l.034 1.157V13z" fill="#fff"/><path d="M75.575 13V7h.938l2.916 4.667h.034l-.034-1.156v-3.51h.772v6h-.805l-3.05-4.895h-.034l.034 1.157V13z" stroke="#fff" stroke-width=".2"/><path d="M106.936 30h1.865V17.5h-1.865zm16.807-7.998l-2.139 5.42h-.064l-2.22-5.42h-2.01l3.33 7.575-1.899 4.214h1.946l5.131-11.789zM113.16 28.58c-.61 0-1.463-.306-1.463-1.062 0-.964 1.062-1.335 1.979-1.335.819 0 1.206.178 1.704.418a2.262 2.262 0 0 1-2.22 1.98zm.226-6.852c-1.351 0-2.75.596-3.329 1.914l1.656.692c.354-.692 1.013-.917 1.705-.917.965 0 1.946.58 1.962 1.608v.13c-.338-.194-1.062-.483-1.946-.483-1.786 0-3.603.981-3.603 2.814 0 1.673 1.464 2.751 3.104 2.751 1.254 0 1.947-.563 2.38-1.223h.065v.965h1.802v-4.793c0-2.219-1.658-3.458-3.796-3.458zm-11.532 1.796H99.2V19.24h2.654c1.395 0 2.187 1.154 2.187 2.142 0 .97-.792 2.143-2.187 2.143zm-.048-6.026h-4.471V30H99.2v-4.736h2.606c2.068 0 4.101-1.498 4.101-3.883s-2.033-3.883-4.101-3.883zM77.425 28.582c-1.289 0-2.368-1.079-2.368-2.56 0-1.5 1.079-2.595 2.368-2.595 1.272 0 2.271 1.095 2.271 2.594 0 1.482-.999 2.561-2.271 2.561zm2.142-5.88h-.064c-.419-.499-1.225-.95-2.239-.95-2.127 0-4.077 1.868-4.077 4.27 0 2.383 1.95 4.236 4.077 4.236 1.014 0 1.82-.45 2.239-.967h.064v.612c0 1.628-.87 2.497-2.271 2.497-1.144 0-1.853-.82-2.143-1.514l-1.627.677c.467 1.127 1.707 2.513 3.77 2.513 2.191 0 4.044-1.289 4.044-4.43v-7.637h-1.773zM82.629 30h1.868V17.5h-1.868zm4.623-4.124c-.048-1.644 1.273-2.48 2.223-2.48.742 0 1.37.37 1.58.901zm5.8-1.418c-.355-.95-1.434-2.707-3.641-2.707-2.191 0-4.012 1.724-4.012 4.254 0 2.384 1.805 4.253 4.221 4.253 1.949 0 3.077-1.192 3.545-1.885l-1.45-.967c-.484.71-1.144 1.176-2.095 1.176-.95 0-1.627-.435-2.061-1.289l5.686-2.352zm-45.308-1.4v1.803h4.317c-.128 1.015-.467 1.756-.982 2.271-.629.63-1.612 1.322-3.335 1.322-2.659 0-4.737-2.143-4.737-4.8s2.078-4.803 4.737-4.803c1.434 0 2.481.564 3.254 1.29l1.273-1.273c-1.08-1.03-2.513-1.82-4.527-1.82-3.642 0-6.703 2.964-6.703 6.605 0 3.64 3.061 6.605 6.703 6.605 1.965 0 3.447-.645 4.607-1.853 1.192-1.192 1.563-2.868 1.563-4.22 0-.419-.032-.806-.097-1.128zm11.078 5.524c-1.288 0-2.4-1.063-2.4-2.577 0-1.53 1.112-2.578 2.4-2.578 1.289 0 2.401 1.047 2.401 2.578 0 1.514-1.112 2.577-2.401 2.577zm0-6.83c-2.352 0-4.269 1.788-4.269 4.253 0 2.45 1.917 4.253 4.269 4.253 2.353 0 4.27-1.804 4.27-4.253 0-2.465-1.917-4.254-4.27-4.254zm9.314 6.83c-1.289 0-2.401-1.063-2.401-2.577 0-1.53 1.112-2.578 2.401-2.578s2.4 1.047 2.4 2.578c0 1.514-1.111 2.577-2.4 2.577zm0-6.83c-2.352 0-4.269 1.788-4.269 4.253 0 2.45 1.917 4.253 4.269 4.253s4.269-1.804 4.269-4.253c0-2.465-1.917-4.254-4.269-4.254z" fill="#fff"/><path d="M1.436.538c-.291.308-.463.786-.463 1.405v22.116c0 .62.172 1.097.463 1.404l.073.073 12.39-12.389v-.292L1.509.465z" fill="#00d2ff" mask="url(#b)" transform="translate(9 7)"/><path d="M.899 4.855v.292l4.129 4.131.094-.052 4.893-2.78c1.397-.795 1.397-2.095 0-2.889L5.122.777 5.029.724z" fill="#ffc802" mask="url(#c)" transform="translate(22 15)"/><path d="M.436 12.463c.46.488 1.221.549 2.078.062l14.608-8.3L12.899.001z" fill="url(#d)" mask="url(#e)" transform="translate(10 20)"/><path d="M.436.538l12.463 12.463 4.223-4.224L2.514.477C2.112.248 1.731.14 1.393.14 1.009.14.68.279.436.538" fill="#00f076" mask="url(#f)" transform="translate(10 7)"/><g><g fill="#000"><path d="M27.029 24.132L12.514 32.38c-.812.46-1.538.43-2.004.01l-.074.075.073.072v-.001c.467.42 1.193.45 2.005-.01l14.608-8.301zM10.435 32.319c-.29-.309-.463-.787-.463-1.406v.146c0 .62.172 1.097.463 1.405l.074-.073zM32.015 21.299l-4.986 2.833.093.093 4.893-2.78c.699-.397 1.048-.92 1.048-1.443-.06.473-.414.937-1.048 1.297"/></g><path d="M12.514 7.623l19.5 11.08c.635.36.99.824 1.049 1.298 0-.523-.35-1.047-1.048-1.444L12.514 7.477c-1.398-.794-2.541-.134-2.541 1.466v.146c0-1.6 1.143-2.26 2.54-1.466" fill="#fff"/></g></g></svg>