<svg height="36" viewBox="0 0 146 36" width="146" xmlns="http://www.w3.org/2000/svg"><g fill="none" fill-rule="evenodd"><g fill="#14b45c"><path d="M9.206 4.01L29.237.476c3.709-.654 5.122-.505 6.605-.019s2.736 1.363 3.7 2.59c.964 1.228 1.587 2.505 2.241 6.214l1.796 10.183c.654 3.709.505 5.121.019 6.605s-1.363 2.735-2.59 3.7-2.505 1.587-6.214 2.24l-20.031 3.533c-3.709.654-5.122.505-6.605.019-1.484-.486-2.736-1.363-3.7-2.59s-1.587-2.505-2.241-6.214L.42 16.555c-.654-3.709-.505-5.121-.019-6.605a7.676 7.676 0 0 1 2.59-3.7c1.229-.964 2.505-1.587 6.214-2.24z" opacity=".2"/><path d="M11.256 3h19.488c3.567 0 4.86.371 6.163 1.069 1.304.697 2.327 1.72 3.024 3.024S41 9.689 41 13.256v9.488c0 3.567-.371 4.86-1.069 6.163s-1.72 2.327-3.024 3.024S34.311 33 30.744 33H11.256c-3.567 0-4.86-.371-6.163-1.069a7.27 7.27 0 0 1-3.024-3.024C1.37 27.604 1 26.311 1 22.744v-9.488c0-3.567.371-4.86 1.069-6.163a7.27 7.27 0 0 1 3.024-3.024C6.396 3.37 7.689 3 11.256 3zm13.587 14.54L23.2 22.334l-4.043-11.792c-.247-.721-1.267-.721-1.514 0L15.43 17H12.8a.8.8 0 1 0 0 1.6H16a.8.8 0 0 0 .757-.54l1.643-4.793 4.043 11.792c.247.721 1.267.721 1.514 0L26.17 18.6H28.8a.8.8 0 0 0 0-1.6h-3.2a.8.8 0 0 0-.757.54z"/></g><path d="M57.05 26.302c-2.112 0-3.476-1.144-4.356-2.42v2.178H51V10h1.694v6.974c.924-1.364 2.266-2.53 4.356-2.53 2.728 0 5.434 2.156 5.434 5.896v.044c0 3.718-2.684 5.918-5.434 5.918zm-.308-1.518c2.2 0 4.004-1.628 4.004-4.378v-.044c0-2.684-1.848-4.4-4.004-4.4-2.112 0-4.114 1.782-4.114 4.378v.044c0 2.64 2.002 4.4 4.114 4.4zm9.878-3.718c.242 2.398 2.002 3.784 4.004 3.784 1.562 0 2.662-.638 3.586-1.606l1.056.946c-1.144 1.276-2.53 2.134-4.686 2.134-3.124 0-5.676-2.398-5.676-5.94 0-3.3 2.31-5.94 5.456-5.94 3.366 0 5.302 2.684 5.302 6.028 0 .154 0 .33-.022.594zm0-1.364h7.326c-.198-2.068-1.386-3.828-3.63-3.828-1.958 0-3.454 1.628-3.696 3.828zm13.024 1.364c.242 2.398 2.002 3.784 4.004 3.784 1.562 0 2.662-.638 3.586-1.606l1.056.946c-1.144 1.276-2.53 2.134-4.686 2.134-3.124 0-5.676-2.398-5.676-5.94 0-3.3 2.31-5.94 5.456-5.94 3.366 0 5.302 2.684 5.302 6.028 0 .154 0 .33-.022.594zm0-1.364h7.326c-.198-2.068-1.386-3.828-3.63-3.828-1.958 0-3.454 1.628-3.696 3.828zm12.012 9.878V14.686h1.694v2.288c.924-1.364 2.266-2.53 4.356-2.53 2.728 0 5.434 2.156 5.434 5.896v.044c0 3.718-2.684 5.918-5.434 5.918-2.112 0-3.476-1.144-4.356-2.42v5.698zm5.742-4.796c2.2 0 4.004-1.628 4.004-4.378v-.044c0-2.684-1.848-4.4-4.004-4.4-2.112 0-4.114 1.782-4.114 4.378v.044c0 2.64 2.002 4.4 4.114 4.4zm15.488 1.496c-1.782 0-2.882-.814-3.674-1.76v1.54h-3.344V10h3.344v5.962c.814-1.1 1.936-1.914 3.674-1.914 2.75 0 5.368 2.156 5.368 6.094v.044c0 3.938-2.574 6.094-5.368 6.094zm-.858-2.838c1.562 0 2.882-1.276 2.882-3.256v-.044c0-1.958-1.32-3.256-2.882-3.256s-2.86 1.298-2.86 3.256v.044c0 1.958 1.298 3.256 2.86 3.256zm8.296 2.618v-3.52h3.564v3.52zm6.49-13.09V10h3.52v2.97zm.088 13.09V14.268h3.344V26.06zm12.276.264c-3.652 0-6.358-2.706-6.358-6.094v-.044c0-3.388 2.728-6.138 6.402-6.138 3.652 0 6.358 2.706 6.358 6.094v.044c0 3.388-2.728 6.138-6.402 6.138zm.044-2.882c1.914 0 3.058-1.474 3.058-3.212v-.044c0-1.738-1.254-3.256-3.102-3.256-1.914 0-3.058 1.474-3.058 3.212v.044c0 1.738 1.254 3.256 3.102 3.256z" fill="#fff"/></g></svg>