<svg height="80" viewBox="0 0 70 80" width="70" xmlns="http://www.w3.org/2000/svg"><g fill="none"><path d="M68.663 10.053L35.404.073a1.597 1.597 0 0 0-.954 0l-33.26 9.98a1.664 1.664 0 0 0-1.187 1.594v36.595c0 14.708 22.424 27.793 34.43 31.532.325.102.673.102.998 0 11.993-3.74 34.416-16.824 34.416-31.532V11.647c0-.734-.48-1.382-1.184-1.594z" fill="#14b45c"/><ellipse cx="34.925" cy="38.262" fill="#151720" rx="18.292" ry="18.298"/><path d="M31.6 46.579c-.442 0-.865-.174-1.178-.486L23.77 39.44a1.664 1.664 0 0 1 2.352-2.352l5.477 5.476 12.127-12.13a1.663 1.663 0 1 1 2.351 2.353L32.773 46.093a1.663 1.663 0 0 1-1.174.486z" fill="#fafafa"/></g></svg>