<svg height="20" viewBox="0 0 20 20" width="20" xmlns="http://www.w3.org/2000/svg"><path d="m9.92902655 19.8576991c-5.4835522 0-9.92884956-4.4452973-9.92884956-9.92884954 0-5.4835522 4.44529736-9.92884956 9.92884956-9.92884956 5.48355215 0 9.92884955 4.44529736 9.92884955 9.92884956 0 5.48355224-4.4452974 9.92884954-9.92884955 9.92884954zm6.08176995-12.72212388c-.4254868.18867257-.8831859.31628319-1.3631859.37327434.4900885-.29362832.8661947-.75823009 1.0437168-1.31274337-.458584.2720354-.9667256.46938054-1.5070796.57575222-.4329204-.46106195-1.0497345-.74920354-1.7327434-.74920354-1.3104425 0-2.3732743 1.06283186-2.3732743 2.37327433 0 .1860177.0210619.36707965.0617699.54088496-1.97238938-.09893805-3.72123894-1.04371681-4.89185841-2.48-.20424778.35044248-.32141593.75840708-.32141593 1.19327434 0 .82318584.41929204 1.5499115 1.05575222 1.97539823-.38884956-.01221239-.75504425-.11893806-1.07486726-.29716815-.00017699.0100885-.00017699.020177-.00017699.0300885 0 1.14991152.81840708 2.10902652 1.9038938 2.32690262-.19893805.0545133-.40902655.0833629-.62513274.0833629-.15327434 0-.30176991-.0146903-.44654867-.0423009.3019469.9426548 1.17823009 1.6288495 2.21699115 1.6481416-.81238938.6366371-1.83557522 1.0159292-2.94778761 1.0159292-.19115044 0-.38053098-.0111505-.56584071-.0332744 1.04973451.6736284 2.29752212 1.0663717 3.63769911 1.0663717 4.36530974 0 6.75256634-3.6162832 6.75256634-6.75274334 0-.10283186-.0023008-.20530973-.0069026-.30690265.4640708-.33451328.8663717-.75238939 1.1844248-1.22831859z" fill="#fff" opacity=".9"/></svg>