<svg height="20" viewBox="0 0 20 20" width="20" xmlns="http://www.w3.org/2000/svg"><path d="m9.9985654 19.9971308c-5.52205519 0-9.9985654-4.4765102-9.9985654-9.9985654 0-5.52205519 4.47651021-9.9985654 9.9985654-9.9985654 5.5220552 0 9.9985654 4.47651021 9.9985654 9.9985654 0 5.5220552-4.4765102 9.9985654-9.9985654 9.9985654zm5.2322785-11.92801688c0-.83818565-.6790296-1.51755274-1.5167511-1.51755274h-7.11611812c-.83755274 0-1.51645569.67953587-1.51645569 1.51755274v4.06936708c0 .8381857.67902953 1.5175528 1.51645569 1.5175528h7.11599152c.8378903 0 1.5167511-.6795359 1.5167511-1.5175528v-4.06936708zm-6.08991563 3.75139238v-3.82210968l2.89852323 1.91113924z" fill="#fff" opacity=".9"/></svg>